<svg xmlns="http://www.w3.org/2000/svg" xmlns:xlink="http://www.w3.org/1999/xlink" width="500" zoomAndPan="magnify" viewBox="0 0 375 374.999991" height="500" preserveAspectRatio="xMidYMid meet" version="1.0"><defs><clipPath id="6a20134ffb"><path d="M 22.171875 98 L 328 98 L 328 282 L 22.171875 282 Z M 22.171875 98 " clip-rule="nonzero"/></clipPath><clipPath id="6991d561a4"><path d="M 31 196 L 225 196 L 225 317.25 L 31 317.25 Z M 31 196 " clip-rule="nonzero"/></clipPath></defs><rect x="-37.5" width="450" fill="#ffffff" y="-37.499999" height="449.999989" fill-opacity="1"/><rect x="-37.5" width="450" fill="#ffffff" y="-37.499999" height="449.999989" fill-opacity="1"/><path fill="#f3f6f8" d="M 237.902344 212.707031 C 236.550781 211.363281 235.445312 209.796875 234.644531 208.070312 L 232.183594 202.777344 C 229.476562 204.246094 226.515625 204.964844 223.613281 205.769531 L 223.179688 205.761719 L 221.1875 205.996094 L 217.949219 205.726562 C 217.589844 205.582031 217.777344 205.617188 217.398438 205.609375 C 213.785156 204.023438 215.527344 204.75 212.175781 203.40625 C 212.234375 203.3125 211.789062 203.148438 211.789062 203.144531 C 209.269531 200.554688 210.601562 201.886719 207.769531 199.144531 C 207.617188 198.800781 207.722656 198.957031 207.453125 198.679688 C 204.632812 193.871094 204.875 189.960938 204.777344 184.382812 L 198.953125 184.109375 C 190.105469 183.695312 183.265625 176.179688 183.683594 167.320312 C 183.769531 165.421875 184.195312 163.550781 184.9375 161.796875 L 187.222656 156.421875 L 182.011719 153.800781 C 174.09375 149.824219 170.902344 140.171875 174.878906 132.25 C 175.738281 130.550781 176.882812 129.011719 178.277344 127.710938 L 182.542969 123.730469 L 178.847656 119.214844 C 173.234375 112.355469 174.242188 102.242188 181.09375 96.625 C 182.5625 95.417969 184.238281 94.480469 186.035156 93.863281 L 191.558594 91.960938 L 190.015625 86.332031 C 187.671875 77.78125 192.699219 68.949219 201.242188 66.609375 C 203.078125 66.105469 204.988281 65.933594 206.886719 66.097656 L 212.695312 66.613281 L 213.578125 60.84375 C 214.917969 52.074219 223.09375 46.054688 231.851562 47.394531 C 233.730469 47.683594 235.546875 48.300781 237.210938 49.226562 L 242.3125 52.058594 L 245.460938 47.144531 C 250.242188 39.683594 260.164062 37.507812 267.617188 42.296875 C 269.21875 43.324219 270.625 44.632812 271.769531 46.15625 L 275.277344 50.820312 L 280.15625 47.609375 C 287.554688 42.742188 297.496094 44.800781 302.363281 52.207031 C 303.410156 53.796875 304.160156 55.566406 304.59375 57.417969 L 305.902344 63.109375 L 311.660156 62.164062 C 320.402344 60.726562 328.648438 66.652344 330.078125 75.40625 C 330.390625 77.285156 330.363281 79.203125 330 81.070312 L 328.882812 86.804688 L 334.527344 88.285156 C 343.09375 90.53125 348.222656 99.300781 345.976562 107.878906 C 345.496094 109.71875 344.691406 111.464844 343.597656 113.023438 L 340.25 117.804688 L 344.800781 121.457031 C 351.714844 126.996094 352.832031 137.097656 347.300781 144.019531 C 346.113281 145.503906 344.664062 146.765625 343.03125 147.746094 L 338.035156 150.757812 L 340.710938 155.945312 C 344.777344 163.820312 341.695312 173.5 333.824219 177.574219 C 332.132812 178.445312 330.296875 179.011719 328.414062 179.246094 L 322.621094 179.953125 L 322.960938 185.78125 C 323.46875 194.632812 316.71875 202.226562 307.878906 202.738281 C 305.976562 202.847656 304.074219 202.621094 302.253906 202.0625 L 296.671875 200.347656 L 294.613281 205.816406 C 291.488281 214.109375 282.234375 218.296875 273.949219 215.164062 C 272.167969 214.492188 270.523438 213.507812 269.085938 212.261719 L 264.683594 208.421875 L 260.585938 212.578125 C 254.355469 218.878906 244.199219 218.941406 237.902344 212.707031 Z M 273.640625 118.625 L 274.480469 118.976562 L 273.929688 118.722656 Z M 257.785156 154.828125 C 270.460938 156.492188 281.867188 150.117188 286.859375 138.21875 C 288.269531 134.867188 288.167969 133.933594 288.734375 130.269531 C 287.214844 129.277344 285.582031 128.4375 284.167969 127.289062 C 282.765625 126.152344 281.9375 124.277344 280.601562 123.039062 C 276.558594 119.292969 271.816406 117.523438 266.410156 117.40625 C 258.621094 118.109375 254.515625 120.8125 250.195312 127.230469 C 249.574219 128.164062 248.285156 131.101562 248.121094 132.222656 C 247.8125 134.308594 247.644531 136.414062 247.671875 138.519531 C 247.683594 139.578125 248.046875 140.597656 248.234375 141.636719 C 248.699219 143.367188 249.550781 145.011719 249.878906 146.777344 C 249.988281 147.332031 249.839844 147.914062 249.890625 148.476562 C 249.945312 149.039062 250.199219 149.574219 250.203125 150.136719 C 250.207031 150.835938 249.90625 151.515625 249.914062 152.21875 C 251.039062 152.828125 250.222656 152.40625 252.417969 153.351562 L 252.574219 153.4375 C 256.019531 154.542969 254.28125 154.082031 257.785156 154.828125 " fill-opacity="1" fill-rule="nonzero"/><path fill="#ebc817" d="M 220.910156 189.945312 L 220.554688 169.050781 L 199.703125 168.074219 L 207.867188 148.839844 L 189.210938 139.453125 L 204.484375 125.207031 L 191.253906 109.042969 L 210.996094 102.242188 L 205.480469 82.089844 L 226.28125 83.917969 L 229.429688 63.257812 L 247.6875 73.398438 L 258.960938 55.808594 L 271.515625 72.5 L 288.964844 61.019531 L 293.652344 81.382812 L 314.257812 78 L 310.265625 98.515625 L 330.460938 103.808594 L 318.484375 120.921875 L 334.78125 133.980469 L 316.878906 144.738281 L 326.460938 163.304688 L 305.738281 165.847656 L 306.945312 186.710938 L 286.984375 180.589844 L 279.609375 200.144531 L 263.859375 186.425781 L 249.179688 201.285156 L 240.363281 182.34375 Z M 234.164062 149.980469 L 233.789062 149.097656 C 233.441406 148.019531 233.046875 146.960938 232.757812 145.867188 C 230.796875 138.503906 231.308594 130.675781 234.109375 123.597656 C 241.375 105.464844 261.953125 96.660156 280.070312 103.929688 C 286.03125 106.496094 291.277344 110.265625 295.175781 115.515625 L 295.367188 115.792969 C 291.410156 106.535156 285.109375 100.0625 275.769531 96.171875 C 257.652344 88.898438 237.074219 97.707031 229.808594 115.84375 C 225.335938 127.871094 226.8125 139.46875 234.164062 149.980469 Z M 246.070312 168.09375 C 224.128906 159.28125 213.46875 134.335938 222.269531 112.371094 C 231.070312 90.402344 255.992188 79.738281 277.941406 88.542969 C 299.882812 97.351562 310.539062 122.300781 301.742188 144.261719 C 292.941406 166.230469 268.015625 176.898438 246.070312 168.09375 Z M 244.167969 172.84375 C 268.738281 182.703125 296.636719 170.765625 306.488281 146.171875 C 316.335938 121.582031 304.410156 93.652344 279.839844 83.792969 C 255.273438 73.933594 227.375 85.875 217.523438 110.460938 C 207.667969 135.054688 219.601562 162.980469 244.167969 172.84375 " fill-opacity="1" fill-rule="nonzero"/><g clip-path="url(#6a20134ffb)"><path fill="#f3f6f8" d="M 149.597656 281.585938 C 147.878906 281.566406 146.160156 281.542969 144.4375 281.414062 L 84.539062 281.332031 C 50.148438 281.332031 22.261719 253.425781 22.261719 219 L 22.269531 218.582031 C 23.078125 192.609375 38.738281 169.828125 63.125 160.558594 C 76.792969 115.558594 122.984375 90.699219 168.398438 100.507812 C 190.496094 105.28125 209.644531 118.859375 223.25 136.695312 C 225.457031 136.214844 227.734375 135.996094 229.992188 135.996094 C 254.789062 136.464844 277.347656 153.34375 282.394531 178.101562 C 285.628906 179 288.980469 179.550781 292.09375 180.800781 C 305.160156 186.074219 319.40625 196.683594 323.765625 210.8125 L 327.265625 227.285156 C 327.363281 228.960938 327.351562 228.300781 327.351562 229.273438 C 327.351562 258.414062 302.589844 281.582031 272.542969 281.582031 L 154.824219 281.429688 L 154.417969 281.464844 Z M 145.789062 249.3125 C 148.269531 249.550781 150.800781 249.5625 153.285156 249.320312 L 154.074219 249.320312 L 272.5625 249.480469 C 288.320312 248.882812 299.632812 235.882812 293.289062 220.960938 C 291.847656 217.992188 288.324219 214.710938 283.675781 212.25 L 282.050781 211.492188 C 278.90625 217.402344 280.660156 214.558594 276.769531 220.027344 L 248.636719 205.964844 C 249.742188 201.882812 250.605469 198.277344 251.203125 195.320312 C 253.976562 181.128906 247.316406 173.40625 234.40625 168.542969 C 233.109375 168.140625 231.695312 168.269531 230.339844 168.136719 C 227.546875 168.324219 224.796875 168.902344 222.128906 169.730469 C 216.542969 171.957031 211.730469 174.789062 207.433594 179.4375 L 181.304688 161.386719 C 183.667969 156.566406 187.035156 152.347656 190.710938 148.46875 C 181.699219 139.136719 169.136719 131.949219 155.96875 130.964844 C 152.175781 130.683594 148.367188 130.746094 144.5625 130.632812 C 130.074219 131.953125 116.558594 137.304688 106.351562 147.96875 C 104.042969 150.382812 102.242188 153.238281 100.1875 155.871094 C 105.542969 157.449219 102.667969 156.488281 108.765625 158.859375 C 112.296875 160.355469 115.648438 162.066406 118.800781 164.03125 L 105.796875 193.054688 C 98.429688 190.882812 92.328125 189.691406 87.367188 189.261719 C 84.144531 188.980469 81.914062 189.046875 80.273438 189.28125 C 79.960938 189.324219 78.683594 189.566406 78.484375 189.597656 C 61.191406 192.261719 50.699219 211.777344 55.699219 227.988281 C 59.765625 241.183594 71.21875 248.554688 84.5625 249.226562 L 144.988281 249.3125 L 145.789062 249.3125 " fill-opacity="1" fill-rule="nonzero"/></g><path fill="#6ea4dd" d="M 149.5625 265.535156 C 148.03125 265.503906 146.496094 265.519531 144.964844 265.363281 L 84.546875 265.28125 C 59.011719 265.28125 38.308594 244.5625 38.308594 219 C 38.84375 198.222656 51.09375 181.472656 70.792969 174.800781 C 72.464844 174.238281 74.316406 174.007812 75.984375 173.746094 C 77.648438 173.480469 87.28125 170.863281 110.328125 177.660156 C 95.972656 168.714844 77.679688 167.75 77.84375 167.128906 C 87.96875 129.050781 126.480469 108.078125 165.09375 116.214844 C 187.214844 120.878906 203.734375 136.445312 213.164062 149.898438 C 213.40625 150.242188 200.640625 158.542969 195.664062 168.539062 C 203.554688 160.007812 212.847656 156.15625 216.203125 154.816406 C 219.5625 153.484375 225.308594 152.347656 229.996094 152.050781 C 250.957031 152.050781 267.945312 169.058594 267.945312 190.035156 C 267.945312 190.035156 267.835938 192.246094 267.78125 193.359375 C 267.722656 194.476562 266.773438 200.390625 264.117188 210.175781 C 271.117188 201.15625 271.527344 193.3125 271.855469 193.273438 C 282.152344 192.027344 301.125 200.394531 307.714844 213.933594 C 309.542969 217.691406 310.265625 221.515625 311.121094 225.570312 L 311.125 225.628906 L 311.320312 225.648438 C 311.195312 226.859375 311.25 228.066406 311.320312 229.277344 C 311.320312 249.300781 293.96875 265.535156 272.570312 265.535156 L 154.058594 265.375 L 153.445312 265.4375 L 149.5625 265.535156 " fill-opacity="1" fill-rule="nonzero"/><g clip-path="url(#6991d561a4)"><path fill="#f3f6f8" d="M 185.945312 317.253906 L 116.730469 317.164062 C 115.34375 317.226562 116.3125 317.1875 113.816406 317.246094 L 113.484375 317.222656 L 113.140625 317.25 C 111.289062 317.21875 112.238281 317.25 110.289062 317.152344 L 75.042969 317.105469 L 74.65625 317.105469 C 50.328125 316.492188 32.785156 298.191406 31.757812 274.160156 C 31.742188 273.695312 31.753906 273.230469 31.777344 272.765625 C 32.460938 256.441406 42.019531 241.097656 57.128906 234.394531 C 67.742188 205.425781 96.015625 192.164062 125.523438 197.347656 C 125.8125 197.402344 126.097656 197.464844 126.382812 197.535156 C 139.320312 200.574219 151.226562 207.996094 159.707031 218.257812 C 160.683594 218.203125 160.164062 218.214844 161.257812 218.214844 C 177.300781 218.382812 192.070312 228.96875 197.152344 244.230469 C 207.335938 247.3125 215.214844 253.992188 220.714844 262.96875 C 221.003906 263.488281 221.261719 264.023438 221.492188 264.574219 C 222.925781 267.65625 223.664062 271.003906 224.394531 274.308594 C 224.988281 275.921875 224.871094 277.691406 224.804688 279.390625 L 224.847656 279.167969 C 224.285156 302.25 208.425781 315.371094 186.347656 317.253906 Z M 154.585938 251.679688 L 154.375 252.054688 L 154.652344 251.730469 Z M 167.207031 257.074219 L 167.253906 257.136719 L 167.207031 256.8125 Z M 116.085938 285.058594 L 185.96875 285.148438 C 189.449219 284.699219 187.5 285.222656 191.605469 282.949219 C 192.964844 280.363281 192.769531 281.585938 192.738281 279.410156 C 190.554688 281.957031 187.269531 283.695312 183.988281 284.316406 C 182.429688 284.609375 180.816406 284.445312 179.230469 284.507812 L 176.832031 284.054688 C 168.277344 281.765625 163.195312 272.964844 165.488281 264.398438 C 166.378906 261.171875 167.375 257.980469 166.902344 254.621094 L 163.742188 250.941406 L 161.277344 250.332031 C 157.675781 250.613281 154.585938 252.609375 152.128906 255.148438 C 147.101562 260.359375 139.214844 261.546875 132.871094 258.054688 C 125.113281 253.78125 122.285156 244.015625 126.558594 236.25 C 128.195312 233.46875 127.460938 234.523438 128.59375 232.976562 C 124.007812 229.519531 118.5625 228.414062 112.964844 228.128906 C 106.695312 228.203125 100.359375 229.929688 95.410156 233.914062 C 97.257812 234.816406 96.285156 234.304688 98.3125 235.476562 C 104.675781 239.171875 107.714844 246.722656 105.683594 253.800781 C 103.242188 262.320312 94.359375 267.246094 85.84375 264.796875 C 82.066406 263.714844 78.191406 262.730469 74.238281 262.664062 C 73.285156 262.714844 73.964844 262.660156 72.222656 262.949219 L 72.117188 262.902344 C 66.175781 264.394531 64.390625 268.972656 63.808594 274.515625 C 64.015625 280.566406 69.347656 284.828125 75.082031 285 L 110.722656 285.050781 L 113.851562 285.136719 Z M 63.777344 273.542969 L 63.800781 274.3125 L 63.816406 273.351562 Z M 185.585938 285.152344 L 185.625 285.191406 L 185.96875 285.148438 L 185.585938 285.152344 " fill-opacity="1" fill-rule="nonzero"/></g><path fill="#aed6f2" d="M 113.410156 301.203125 C 112.503906 301.183594 111.601562 301.195312 110.703125 301.105469 L 75.058594 301.054688 C 60 301.054688 47.785156 288.835938 47.785156 273.761719 C 48.105469 261.503906 55.328125 251.621094 66.949219 247.6875 C 67.933594 247.351562 69.027344 247.21875 70.011719 247.0625 C 70.992188 246.902344 76.675781 245.363281 90.269531 249.371094 C 81.796875 244.09375 71.011719 243.523438 71.109375 243.160156 C 77.078125 220.703125 99.796875 208.328125 122.570312 213.128906 C 135.621094 215.878906 145.359375 225.066406 150.929688 232.996094 C 151.066406 233.203125 143.539062 238.09375 140.601562 243.992188 C 145.257812 238.957031 150.738281 236.6875 152.71875 235.898438 C 154.699219 235.113281 158.089844 234.441406 160.855469 234.265625 C 173.21875 234.265625 183.238281 244.296875 183.238281 256.671875 C 183.238281 256.671875 183.171875 257.976562 183.136719 258.636719 C 183.105469 259.289062 182.546875 262.777344 180.976562 268.550781 C 185.109375 263.234375 185.347656 258.605469 185.542969 258.578125 C 191.617188 257.847656 202.8125 262.785156 206.695312 270.769531 C 207.773438 272.984375 208.199219 275.238281 208.703125 277.628906 L 208.707031 277.664062 L 208.820312 277.683594 C 208.746094 278.394531 208.78125 279.105469 208.820312 279.816406 C 208.820312 291.628906 198.589844 301.203125 185.964844 301.203125 L 116.0625 301.113281 L 115.699219 301.144531 L 113.410156 301.203125 " fill-opacity="1" fill-rule="nonzero"/></svg>